<?xml version="1.0" encoding="utf-8"?>
<!-- Generator: Adobe Illustrator 21.0.0, SVG Export Plug-In . SVG Version: 6.00 Build 0)  -->
<svg version="1.1" id="Ebene_1" xmlns="http://www.w3.org/2000/svg" xmlns:xlink="http://www.w3.org/1999/xlink" x="0px" y="0px"
	 viewBox="0 0 599.7 741.7" style="enable-background:new 0 0 599.7 741.7;" xml:space="preserve">
<style type="text/css">
	.st0{fill:#73B731;}
	.st1{fill:#3C3C3B;}
	.st2{fill:#FFFFFF;}
</style>
<rect id="Hintergrund" class="st0" width="599.7" height="741.7"/>
<g id="DDF_Logo">
	<path class="st1" d="M386.6,672.6V560.4h138.3v22H408.6v14.7h89.1v20.5h-89.1v55H386.6z M542.6,555.1c0-9.6-8.9-17.4-20-17.4H386.3
		c-11,0-20,7.8-20,17.4v118.8c0,9.6,8.9,17.4,20,17.4h136.3c11,0,20-7.8,20-17.4V555.1z"/>
	<g>
		<path class="st2" d="M51.5,597.5c0-6.9,4.8-12.1,11.5-12.1s11.3,5,11.3,12.1c0,6.9-4.6,12.1-11.7,12.1
			C56.1,609.6,51.5,604.4,51.5,597.5z"/>
		<path class="st2" d="M172,601.4c0,1.9-0.5,3.6-1.6,5c-1,1.4-2.5,2.1-4.3,2.1c-1.7,0-3.3-0.6-4.9-1.8l-59.7-46.4V608H88.1v-61.3
			c0-2,0.5-3.6,1.6-5c1-1.4,2.5-2.1,4.4-2.1c1.6,0,3.2,0.6,4.8,1.8l59.7,46.3V540H172V601.4z"/>
		<path class="st2" d="M183.2,608v-68h83.9v13.3h-70.5v8h57.5v13.4h-57.5v20h70.5V608H183.2z"/>
		<path class="st2" d="M324.8,553.3V608h-13.3v-54.7h-35.3V540h83.9v13.3H324.8z"/>
		<path class="st2" d="M170.4,673.4c0,5.2-3.9,9.2-11.7,12c-5.8,2.1-11.9,3.1-18.3,3.1H86.5v-68h53.9c7.2,0,13.4,0.9,18.6,2.7
			c7.6,2.6,11.4,6.8,11.4,12.5L170.4,673.4L170.4,673.4z M157,638.8c0-3.3-5.3-5-15.9-5H99.9v41.3h40.5c3.1,0,6.4-0.5,9.8-1.7
			c4.5-1.4,6.8-3.3,6.8-5.7V638.8z"/>
		<path class="st2" d="M252.5,688.5v-21.3h-57.2v21.3H182V642c0-7,3.4-12.5,10.2-16.5c5.8-3.4,12.4-5.1,19.9-5.1h22.8
			c7.3,0,14,1.8,20.1,5.3c7.2,4.1,10.9,9.5,10.9,16.3v46.5H252.5z M252.5,644.8c0-3.5-2.1-6.3-6.4-8.4c-3.7-1.8-7.4-2.7-11.1-2.7
			h-22.8c-3.2,0-6.7,1-10.4,3.1c-4.2,2.4-6.4,5-6.4,7.9v9h57.2v-8.9H252.5z"/>
		<path class="st2" d="M358,673.4c0,5.5-3.8,9.6-11.5,12.2c-5.3,1.9-11.5,2.9-18.5,2.9h-40.3v-13.3H328c11.1,0,16.7-1.9,16.7-5.6
			v-2.3h-40.5c-7.5,0-13.9-1-19.1-3c-7.3-2.9-11-7.5-11-13.7v-30h13.3v27.3c0,4.1,5.6,6.1,16.7,6.1h40.5v-33.4h13.3v52.8H358z"/>
	</g>
</g>
</svg>